HIERARCHY
ROOT Hips
{
	OFFSET -3.958830 18.904000 13.208200
	CHANNELS 6 Xposition Yposition Zposition Zrotation Yrotation Xrotation 
	JOINT LHipJoint
	{
		OFFSET 0.000000 0.000000 0.000000
		CHANNELS 3 Zrotation Yrotation Xrotation
		JOINT LeftUpLeg
		{
			OFFSET 1.800000 -1.400000 0.085000
			CHANNELS 3 Zrotation Yrotation Xrotation
			JOINT LeftLeg
			{
				OFFSET 2.215000 -6.000000 0.000000
				CHANNELS 3 Zrotation Yrotation Xrotation
				JOINT LeftFoot
				{
					OFFSET 2.500000 -6.900000 0.000000
					CHANNELS 3 Zrotation Yrotation Xrotation
					JOINT LeftToeBase
					{
						OFFSET 0.200000 -0.500000 1.950000
						CHANNELS 3 Zrotation Yrotation Xrotation
						End Site
						{
							OFFSET 0.000000 0.000000 0.000000
						}
					}
				}
			}
		}
	}
	JOINT RHipJoint
	{
		OFFSET 0.000000 0.000000 0.000000
		CHANNELS 3 Zrotation Yrotation Xrotation
		JOINT RightUpLeg
		{
			OFFSET -1.800000 -1.400000 0.085000
			CHANNELS 3 Zrotation Yrotation Xrotation
			JOINT RightLeg
			{
				OFFSET -2.215000 -6.000000 0.000000
				CHANNELS 3 Zrotation Yrotation Xrotation
				JOINT RightFoot
				{
					OFFSET -2.500000 -6.900000 0.000000
					CHANNELS 3 Zrotation Yrotation Xrotation
					JOINT RightToeBase
					{
						OFFSET -0.200000 -0.500000 1.950000
						CHANNELS 3 Zrotation Yrotation Xrotation
						End Site
						{
							OFFSET 0.000000 0.000000 0.000000
						}
					}
				}
			}
		}
	}
	JOINT LowerBack
	{
		OFFSET 0.000000 0.000000 0.000000
		CHANNELS 3 Zrotation Yrotation Xrotation
		JOINT Spine
		{
			OFFSET -0.087000 1.940000 -0.288900
			CHANNELS 3 Zrotation Yrotation Xrotation
			JOINT Spine1
			{
				OFFSET 0.000000 1.950000 0.060000
				CHANNELS 3 Zrotation Yrotation Xrotation
				JOINT Neck
				{
					OFFSET 0.000000 0.000000 0.000000
					CHANNELS 3 Zrotation Yrotation Xrotation
					JOINT Neck1
					{
						OFFSET 0.000000 1.600000 0.340000
						CHANNELS 3 Zrotation Yrotation Xrotation
						JOINT Head
						{
							OFFSET 0.000000 1.667000 -0.240000
							CHANNELS 3 Zrotation Yrotation Xrotation
							End Site
							{
								OFFSET 0.000000 0.000000 0.000000
							}
						}
					}
				}
				JOINT LeftShoulder
				{
					OFFSET 0.000000 0.000000 0.000000
					CHANNELS 3 Zrotation Yrotation Xrotation
					JOINT LeftArm
					{
						OFFSET 2.700000 1.550000 -0.730000
						CHANNELS 3 Zrotation Yrotation Xrotation
						JOINT LeftForeArm
						{
							OFFSET 5.450000 0.000000 0.000000
							CHANNELS 3 Zrotation Yrotation Xrotation
							JOINT LeftHand
							{
								OFFSET 3.450000 0.000000 0.000000
								CHANNELS 3 Zrotation Yrotation Xrotation
								JOINT LeftHandIndex1
								{
									OFFSET 0.750000 0.000000 0.000000
									CHANNELS 3 Zrotation Yrotation Xrotation
									End Site
									{
										OFFSET 0.000000 0.000000 0.000000
									}
								}
							}
						}
					}
				}
				JOINT RightShoulder
				{
					OFFSET 0.000000 0.000000 0.000000
					CHANNELS 3 Zrotation Yrotation Xrotation
					JOINT RightArm
					{
						OFFSET -2.700000 1.550000 -0.730000
						CHANNELS 3 Zrotation Yrotation Xrotation
						JOINT RightForeArm
						{
							OFFSET -5.450000 0.000000 0.000000
							CHANNELS 3 Zrotation Yrotation Xrotation
							JOINT RightHand
							{
								OFFSET -3.450000 0.000000 0.000000
								CHANNELS 3 Zrotation Yrotation Xrotation
								JOINT RightHandIndex1
								{
									OFFSET -0.750000 0.000000 0.000000
									CHANNELS 3 Zrotation Yrotation Xrotation
									End Site
									{
										OFFSET 0.000000 0.000000 0.000000
									}
								}
							}
						}
					}
				}
			}
		}
	}
}
MOTION
Frames: 13
Frame Time: 0.016667
0.801190 20.243800 -1.763900 0.585090 32.403014 38.485946 -15.073891 11.180106 7.010471 -5.655243 -17.252906 -42.052167 12.063286 0.153043 -13.533931 1.819605 -0.142371 3.670373 -2.344810 -0.389880 -2.280620 17.978203 -10.610114 4.805986 1.041950 4.865360 -46.513923 10.228485 -5.993520 21.036830 -0.030535 -2.211783 1.558100 -1.219080 0.830850 0.493890 -3.526236 2.581213 -12.286902 -3.301712 -31.570911 9.582010 27.588584 22.158906 -64.161580 13.244667 -2.227347 -43.659170 -37.884094 17.041406 62.278588 6.927440 -8.151820 45.975540 28.901555 20.152378 17.121859 -72.554833 -58.074752 49.205605 163.006773 6.375778 81.233709 -4.323157 3.705858 -1.127460 -0.224070 1.105030 -0.363130 -59.765063 -19.456062 27.226281 -15.351071 -19.508466 23.102718 -143.018254 24.993899 -83.283565 4.537028 -3.889896 0.835300 -0.447350 0.787440 2.384620 
0.804010 20.280300 -1.778160 -0.583762 30.733935 36.704906 -15.230199 11.741815 7.016900 -6.921567 -15.985874 -39.936128 13.389263 0.323986 -15.672915 1.821866 0.244912 3.600315 -2.401840 -0.436520 -2.376030 17.678911 -10.555970 5.053366 3.041239 5.829024 -45.318680 7.722489 -5.095767 20.358084 0.009760 -1.793203 1.792745 -1.208660 0.968940 0.453940 -2.925435 0.745830 -12.910409 2.335189 -27.271248 5.237101 29.743516 20.386381 -63.736302 13.796899 -0.978704 -44.755490 -45.725442 23.789066 59.579664 8.841860 -7.701430 48.836250 31.225621 24.539827 14.057433 -79.975194 -46.419402 50.025793 162.776981 5.009430 81.246310 -4.201482 3.544507 -1.101440 -0.166700 1.070530 -0.336430 -63.495630 -18.072154 24.275818 -17.480692 -15.567186 19.009341 -148.746233 26.867086 -87.324697 5.081803 -3.528108 0.767630 -0.285440 0.878660 2.389680 
0.745170 20.300240 -1.791730 -3.239640 24.100462 34.538398 -15.188541 12.154535 7.523498 -4.246334 -16.285678 -40.767319 19.454225 0.296051 -11.655489 1.723640 0.577825 3.559959 -2.613540 -0.645540 -2.542620 17.420081 -10.860851 5.594607 6.375618 7.060853 -43.190444 1.003333 -2.216249 15.106448 0.187358 -0.811249 2.273485 -1.246950 1.137980 0.364880 -2.767698 -0.306177 -14.763866 4.540451 -22.167619 -1.531794 36.028460 18.357287 -58.373080 15.901637 -0.925181 -47.442237 -50.600504 25.447455 57.062085 2.364140 -1.384660 53.585520 32.895539 29.576259 10.165998 -83.174672 -33.969836 40.225095 164.349189 0.960904 79.213098 -4.125054 3.285116 -1.132800 -0.040500 0.949240 -0.397280 -64.784182 -17.336748 21.114727 -9.283959 -9.294663 11.836756 -155.538404 24.462273 -84.180637 5.091462 -2.940701 0.635910 -0.058830 1.094820 2.369330 
0.711350 20.305600 -1.784400 -3.774259 22.322777 35.401860 -15.094358 12.018943 7.647761 -1.727083 -16.294583 -43.026427 17.708176 0.208919 -8.678928 1.425167 0.616183 3.603314 -2.862950 -1.068200 -2.648330 17.489173 -10.819981 5.877520 7.459187 8.105593 -44.408227 -1.073837 -1.673360 14.597267 0.328227 -0.699915 2.327700 -1.366640 1.330490 0.295750 -3.033525 -0.013998 -15.214562 4.421809 -18.902894 -3.580918 36.537077 17.405601 -59.648326 15.988995 -1.920368 -47.243365 -52.257680 23.776290 53.365368 1.608780 -1.485600 55.945770 32.276820 29.675533 9.241338 -83.964682 -32.396148 40.483413 166.208519 -0.288733 76.235139 -4.311928 3.209168 -1.070200 0.060510 0.718270 -0.565590 -64.763637 -18.186007 21.746050 -6.850968 -11.096004 10.765013 -158.196370 22.617838 -86.002839 4.712329 -2.970881 0.424960 0.081620 1.402810 2.239640 
0.696330 20.261530 -1.784720 -2.082225 24.481067 37.614073 -14.934968 11.578009 7.808599 -0.120879 -16.518022 -46.269801 11.086044 0.383295 -6.421021 1.444502 0.259525 3.822331 -3.141610 -1.345330 -2.965070 17.692434 -10.795695 5.975419 5.137502 8.155514 -47.208917 1.686797 -2.826061 17.678925 0.448933 -1.149859 2.279496 -1.508820 1.628030 0.245840 -3.644937 0.387198 -15.363401 5.791904 -14.602574 -5.843338 39.839737 13.418042 -63.680003 15.789714 -1.696460 -44.934436 -57.165929 22.793179 43.199967 2.801030 -3.597560 60.477490 32.056193 32.473910 8.090624 -82.919503 -23.758819 37.499217 166.512741 -0.399759 74.516541 -4.270172 3.384942 -1.204360 0.207330 0.530130 -0.528530 -67.285357 -18.410281 20.395357 -14.290485 -14.591634 10.905137 -155.152789 22.379261 -84.470261 4.983998 -3.173615 0.341840 0.180250 1.548280 2.350650 
0.713760 20.168920 -1.875610 0.047666 33.576883 42.661849 -14.945521 10.058516 8.006293 3.502076 -18.314067 -56.659859 6.410199 0.770697 2.630505 1.504788 -0.053897 3.933575 -3.106110 -1.321870 -2.970000 18.275031 -9.861172 5.622122 1.857468 9.556078 -51.842891 4.096880 -3.832860 20.858741 0.437472 -1.616110 2.109444 -1.514780 1.663610 0.191260 -4.308197 2.147376 -13.698605 5.695415 -9.578371 -2.148190 33.505773 10.688872 -71.777413 13.480626 -4.848278 -41.803619 -58.125366 15.934594 36.887854 6.025800 -11.913800 57.629780 30.559372 28.271963 11.867759 -88.068437 -37.278611 54.807044 166.977594 4.290603 82.083820 -4.432708 3.475820 -1.249340 0.153390 0.481010 -0.457420 -66.247376 -21.998429 23.393222 -15.859089 -24.042523 18.961618 -139.270582 15.665946 -60.481628 4.716360 -3.480174 0.344320 0.170840 1.444900 2.411700 
0.674570 20.130280 -1.970020 -3.999674 37.943942 41.972513 -14.860602 8.739807 8.458476 12.008911 -17.373455 -67.163454 6.018909 1.595617 17.588480 1.738975 1.256055 3.483356 -3.191090 -1.461490 -3.102770 18.801959 -9.058829 5.648911 6.081678 13.558182 -52.554085 -1.655992 -1.856723 20.418999 0.548917 -1.269245 2.283576 -1.603350 1.713060 0.241730 -5.002669 3.374688 -13.237956 6.085718 0.298918 0.074700 32.497428 8.181629 -75.687041 13.242595 -8.339229 -40.968775 -59.900853 7.927251 31.181633 0.194720 -15.264950 57.880320 34.299824 26.546024 16.257361 -99.342888 -44.858695 73.121058 166.230565 8.913901 78.711313 -4.481842 3.726944 -1.345420 0.182990 0.395270 -0.437200 -69.119854 -24.165312 22.772369 -9.961948 -22.474817 14.712694 -133.123712 11.675354 -39.348193 5.046735 -3.107443 0.387060 0.113260 1.502360 2.483050 
0.615150 20.108200 -2.079150 -9.933891 35.798709 36.204233 -15.317767 8.746804 8.471562 20.351664 -14.160740 -70.499524 3.110743 3.387276 29.729079 1.723218 3.547183 2.674823 -3.211780 -1.512940 -3.023290 18.577402 -8.146909 5.642962 11.822412 16.479045 -49.033285 -7.046495 -0.232118 20.222038 0.518473 -1.225250 2.311797 -1.579460 1.574390 0.278430 -4.041134 1.012010 -12.696605 7.757689 5.635660 5.412880 23.444689 6.668416 -70.634576 13.120789 -10.457845 -46.334075 -49.190519 3.212704 45.516553 -8.773170 -10.894770 49.495420 40.448279 27.500145 22.164956 -108.527076 -59.645045 74.339774 163.820774 7.811345 74.674959 -5.268315 2.132514 -1.267560 0.185890 0.431520 -0.548960 -68.391040 -24.582030 18.685769 2.084596 -3.255147 6.078226 -133.668699 0.882228 0.602356 5.907207 -1.862895 0.351670 0.154850 1.600510 2.369520 
0.564760 20.068600 -2.175000 -13.101921 33.125585 33.300141 -16.243251 9.076663 8.151943 25.988538 -11.146704 -72.209641 -1.600321 6.193758 35.921509 1.807248 5.464666 2.084223 -3.291030 -1.576830 -2.969280 18.008665 -6.616155 5.275864 13.556402 18.242608 -48.585452 -7.190356 -0.169585 24.825950 0.460203 -1.845256 2.060127 -1.580390 1.608890 0.419130 -1.753902 -3.566136 -11.288040 8.422694 3.179355 22.329862 5.497920 10.046073 -70.625821 7.267283 -6.097589 -45.951394 -16.311262 -7.538849 52.284274 -13.271410 -2.853880 37.528930 41.783588 27.273445 19.943611 -109.090408 -79.507741 64.447172 161.040920 4.240902 75.848521 -5.992011 0.014050 -1.354420 0.351370 0.404280 -0.608070 -59.797153 -27.107822 17.073437 10.264790 14.536999 9.589256 -132.664096 -17.931114 31.236904 5.990612 -1.324170 0.332600 0.110680 1.634260 2.313970 
0.611870 19.965560 -2.292030 -15.895002 37.851816 30.674664 -16.804860 8.978833 8.378193 30.389405 -10.286288 -76.986416 -4.994402 8.139158 41.388727 2.003881 7.167464 1.680628 -3.412260 -1.782240 -2.995830 17.771760 -5.413887 4.685798 11.294515 18.519630 -49.977791 0.330251 -3.442736 31.280798 0.439513 -2.931073 1.623432 -1.620630 1.842150 0.488990 -0.705944 -6.930742 -10.884506 6.198217 3.880031 44.817913 -2.767228 12.938239 -82.492010 4.580491 -3.227443 -40.591774 -3.254688 -12.070673 41.535048 -11.488900 -5.200540 29.707620 44.974211 20.627631 18.810351 63.375438 -88.520518 -123.852019 158.213744 2.609905 79.724405 -6.264647 -2.310731 -1.479350 0.504990 0.218090 -0.644010 -55.095927 -23.254024 13.520091 6.115817 16.262661 4.359337 -130.088973 -28.554203 50.273785 6.125158 -0.855135 0.251270 0.157340 1.733080 2.312300 
0.593270 19.937670 -2.467640 -22.783976 37.217438 20.319643 -17.264466 9.462351 8.038964 34.571578 -7.470041 -74.706212 -3.758972 9.703131 48.052803 1.717614 8.793536 1.027729 -3.233080 -1.573560 -2.817120 17.496420 -4.669281 4.140111 18.262818 18.035324 -42.780199 -0.756470 -2.957783 33.314816 0.264974 -3.267503 1.391498 -1.349030 1.775060 0.502970 0.832361 -12.041293 -11.058787 2.535259 8.849326 68.776961 -4.139530 21.715844 -89.059947 4.609529 -1.863620 -40.726668 0.677414 -9.831099 41.264992 -12.561230 -2.651040 15.832140 46.008338 25.505190 18.351618 47.431636 -83.038555 -136.044646 156.228758 -7.836048 70.005793 -5.025214 -4.851173 -1.263690 0.476790 0.288630 -0.753540 -54.955982 -19.130015 9.269275 6.353534 26.854419 -1.794243 -133.519132 -33.253964 55.970250 5.819944 -0.323346 0.126760 0.352600 1.848940 2.149730 
0.457840 19.980930 -2.970130 -32.424537 42.327474 -10.266981 -16.555502 11.572010 6.812507 30.312526 -11.831455 -60.873423 3.423325 4.707140 56.322619 1.741539 8.851031 0.773557 -2.860830 -1.081830 -2.610490 17.980947 -5.644481 3.036995 21.621732 8.497700 -22.361381 5.113732 -6.711580 33.452198 -0.216061 -4.092146 0.888507 -1.112210 1.416520 0.482910 1.253739 -12.005198 -10.005456 2.939585 19.119092 116.174418 -14.909038 28.221755 -100.440607 3.286942 -3.887445 -41.888010 -3.046625 -10.574475 42.021944 -3.861820 -10.872590 -1.279630 47.306103 25.860660 38.381430 72.644160 -48.528303 -163.872712 152.482029 -0.884330 69.024659 -4.581906 -2.331544 -0.960000 0.071540 0.624320 -0.774450 -54.026767 -14.280650 11.512101 3.699088 8.551370 -8.745318 -131.393289 -33.835000 43.898488 6.071066 -0.674588 0.254790 0.402430 1.741370 2.128080 
-0.281570 19.980240 -3.516640 -20.837892 42.477301 -52.255605 -16.022542 15.818312 2.820405 15.459431 -11.810127 -9.193907 6.241039 1.250509 56.841032 1.968687 8.642852 0.828237 -2.397890 -0.347230 -2.463410 17.486890 -8.087984 3.460347 8.350378 -4.397002 21.208298 11.747192 -13.849308 33.362001 -1.287064 -7.587640 -0.334980 -0.751380 1.125930 0.414960 0.818386 -15.594759 -8.768068 3.037189 18.719243 129.896303 16.592705 21.670181 -48.536043 10.039832 -4.246731 -35.579661 -21.402844 -4.185466 49.323112 5.084580 -18.182420 -15.052380 43.199951 -15.745705 6.656954 -5.381415 -21.288298 -8.631150 169.694620 27.880481 59.724495 -5.085851 4.048443 -0.839000 -0.298710 0.957450 -0.678530 -57.670562 4.879562 5.288650 4.666487 1.362222 -18.723952 -127.402717 -29.114134 28.553215 6.025704 -1.818413 0.474190 0.554490 1.527980 2.272610 
